<svg xmlns="http://www.w3.org/2000/svg" width="611" height="307" viewBox="0 0 611 307" version="1.1"><path d="" stroke="none" fill="#e80434" fill-rule="evenodd"/><path d="M 152.607 6.582 C 151.450 9.597, 151.937 20.046, 153.250 20.392 C 153.938 20.573, 158.433 21.468, 163.239 22.382 C 194.987 28.420, 230.046 48.644, 249.899 72.374 L 256.299 80.022 261.899 76.901 C 269.846 72.472, 269.777 72.692, 265.123 66.660 C 242.969 37.944, 202.542 13.652, 165.140 6.581 C 154.721 4.611, 153.363 4.611, 152.607 6.582 M 152.702 33.632 C 151.869 34.464, 152.005 101.719, 152.885 124.191 L 153.500 139.882 198 113.985 C 222.475 99.741, 242.940 87.921, 243.479 87.717 C 245.151 87.085, 241.046 81.866, 231.510 72.500 C 212.585 53.912, 191.560 41.903, 167.908 36.171 C 155.753 33.225, 153.487 32.847, 152.702 33.632 M 113.500 47.548 C -10.322 65.889, -36.505 234.082, 75.760 289.977 C 186.075 344.902, 302.846 224.529, 245.744 114.750 C 240.039 103.782, 240.323 103.939, 233.500 107.981 C 224.264 113.453, 224.454 113.083, 227.945 118.756 C 233.678 128.073, 239.888 145.623, 241.478 157 C 241.824 159.475, 242.344 162.738, 242.633 164.250 L 243.159 167 237.079 167 L 231 167 231 175.500 L 231 184 237.067 184 C 242.363 184, 243.073 184.223, 242.651 185.750 C 242.386 186.713, 241.879 189.750, 241.525 192.500 C 235.677 237.940, 196.179 277.586, 150 284.367 L 141.500 285.615 141.206 278.807 L 140.912 272 132.456 272 L 124 272 124 278.975 L 124 285.950 121.250 285.511 C 119.737 285.270, 115.499 284.599, 111.831 284.021 C 67.230 276.990, 28.205 237.020, 22.475 192.500 C 22.121 189.750, 21.621 186.734, 21.363 185.797 C 20.961 184.333, 21.851 184.052, 27.697 183.797 L 34.500 183.500 34.790 175.250 L 35.081 167 27.961 167 L 20.841 167 21.367 164.250 C 21.656 162.738, 22.176 159.475, 22.522 157 C 29.768 105.152, 74.726 66.569, 131.750 63.262 L 139 62.842 139 54.421 L 139 46 130.750 46.107 C 126.213 46.167, 118.450 46.815, 113.500 47.548 M 168.040 62.806 C 162.415 68.431, 166.792 78.092, 174.287 76.593 C 183.771 74.696, 183.771 62.304, 174.287 60.407 C 171.591 59.868, 170.596 60.251, 168.040 62.806 M 194.400 72.400 C 186.721 80.079, 191.801 93, 202.500 93 C 213.199 93, 218.279 80.079, 210.600 72.400 C 207.698 69.498, 206.512 69, 202.500 69 C 198.488 69, 197.302 69.498, 194.400 72.400 M 123.768 124.153 C 123.467 180.496, 122.770 175.276, 131.205 179.854 L 135.542 182.208 164.521 165.433 C 180.459 156.206, 199.575 145.150, 207 140.863 C 214.425 136.576, 221.057 132.715, 221.738 132.284 C 223.038 131.461, 216.385 118.689, 214.672 118.719 C 213.863 118.734, 187.114 134.115, 155.760 152.597 L 140.021 161.874 139.760 118.187 L 139.500 74.500 131.768 74.208 L 124.037 73.917 123.768 124.153 M 169.500 95.208 C 161.561 99.761, 164.753 112, 173.878 112 C 174.984 112, 177.141 110.923, 178.672 109.606 C 186.213 103.119, 178.050 90.304, 169.500 95.208 M 335.209 97.643 C 333.373 101.134, 266 247.981, 266 248.491 C 266 248.771, 271.800 249, 278.888 249 L 291.776 249 296.717 237.750 L 301.658 226.500 336.579 226.253 L 371.500 226.005 376.477 237.503 L 381.454 249 394.227 249 C 401.252 249, 407 248.638, 407 248.197 C 407 242.715, 336.579 95.036, 335.209 97.643 M 395 112 L 395 124 415 124 L 435 124 435 186.500 L 435 249 447 249 L 459 249 459 186.521 L 459 124.042 478.750 123.771 L 498.500 123.500 498.782 111.750 L 499.063 100 447.032 100 L 395 100 395 112 M 517 174.500 L 517 249 561.500 249 L 606 249 606 237 L 606 225 573.500 225 L 541 225 541 205 L 541 185 569 185 L 597 185 597 173 L 597 161 569 161 L 541 161 541 142 L 541 123 573.500 123 L 606 123 606 111.500 L 606 100 561.500 100 L 517 100 517 174.500 M 323.843 177.354 L 311.186 205.500 336.242 205.767 C 350.023 205.915, 361.454 205.879, 361.644 205.689 C 361.937 205.396, 337.457 150.084, 336.746 149.434 C 336.611 149.310, 330.804 161.874, 323.843 177.354" stroke="none" fill="#e40434" fill-rule="evenodd"/></svg>